<mxfile host="app.diagrams.net" agent="Mozilla/5.0 (Windows NT 10.0; Win64; x64) AppleWebKit/537.36 (KHTML, like Gecko) Chrome/132.0.0.0 Safari/537.36" version="26.0.15">
  <diagram name="페이지-1" id="-gXe2hqJDg1MldZdOpU9">
    <mxGraphModel dx="1434" dy="772" grid="1" gridSize="10" guides="1" tooltips="1" connect="1" arrows="1" fold="1" page="1" pageScale="1" pageWidth="827" pageHeight="1169" math="0" shadow="0">
      <root>
        <mxCell id="0" />
        <mxCell id="1" parent="0" />
        <mxCell id="n75bXKuZ7EVJmXqUyETZ-77" value="" style="rounded=0;whiteSpace=wrap;html=1;" vertex="1" parent="1">
          <mxGeometry x="50" y="140" width="10" height="30" as="geometry" />
        </mxCell>
        <mxCell id="n75bXKuZ7EVJmXqUyETZ-78" value="" style="rounded=0;whiteSpace=wrap;html=1;" vertex="1" parent="1">
          <mxGeometry x="60" y="140" width="10" height="30" as="geometry" />
        </mxCell>
        <mxCell id="n75bXKuZ7EVJmXqUyETZ-79" value="" style="rounded=0;whiteSpace=wrap;html=1;" vertex="1" parent="1">
          <mxGeometry x="70" y="140" width="10" height="30" as="geometry" />
        </mxCell>
        <mxCell id="n75bXKuZ7EVJmXqUyETZ-80" value="" style="rounded=0;whiteSpace=wrap;html=1;" vertex="1" parent="1">
          <mxGeometry x="80" y="140" width="10" height="30" as="geometry" />
        </mxCell>
        <mxCell id="n75bXKuZ7EVJmXqUyETZ-81" value="" style="rounded=0;whiteSpace=wrap;html=1;" vertex="1" parent="1">
          <mxGeometry x="90" y="140" width="10" height="30" as="geometry" />
        </mxCell>
        <mxCell id="n75bXKuZ7EVJmXqUyETZ-82" value="" style="rounded=0;whiteSpace=wrap;html=1;" vertex="1" parent="1">
          <mxGeometry x="100" y="140" width="10" height="30" as="geometry" />
        </mxCell>
        <mxCell id="n75bXKuZ7EVJmXqUyETZ-83" value="" style="rounded=0;whiteSpace=wrap;html=1;" vertex="1" parent="1">
          <mxGeometry x="110" y="140" width="10" height="30" as="geometry" />
        </mxCell>
        <mxCell id="n75bXKuZ7EVJmXqUyETZ-84" value="" style="rounded=0;whiteSpace=wrap;html=1;" vertex="1" parent="1">
          <mxGeometry x="120" y="140" width="10" height="30" as="geometry" />
        </mxCell>
        <mxCell id="n75bXKuZ7EVJmXqUyETZ-85" value="" style="rounded=0;whiteSpace=wrap;html=1;" vertex="1" parent="1">
          <mxGeometry x="130" y="140" width="10" height="30" as="geometry" />
        </mxCell>
        <mxCell id="n75bXKuZ7EVJmXqUyETZ-86" value="" style="rounded=0;whiteSpace=wrap;html=1;" vertex="1" parent="1">
          <mxGeometry x="140" y="140" width="10" height="30" as="geometry" />
        </mxCell>
        <mxCell id="n75bXKuZ7EVJmXqUyETZ-87" value="" style="rounded=0;whiteSpace=wrap;html=1;" vertex="1" parent="1">
          <mxGeometry x="150" y="140" width="10" height="30" as="geometry" />
        </mxCell>
        <mxCell id="n75bXKuZ7EVJmXqUyETZ-88" value="" style="rounded=0;whiteSpace=wrap;html=1;" vertex="1" parent="1">
          <mxGeometry x="160" y="140" width="10" height="30" as="geometry" />
        </mxCell>
        <mxCell id="n75bXKuZ7EVJmXqUyETZ-89" value="" style="rounded=0;whiteSpace=wrap;html=1;" vertex="1" parent="1">
          <mxGeometry x="170" y="140" width="10" height="30" as="geometry" />
        </mxCell>
        <mxCell id="n75bXKuZ7EVJmXqUyETZ-90" value="" style="rounded=0;whiteSpace=wrap;html=1;" vertex="1" parent="1">
          <mxGeometry x="180" y="140" width="10" height="30" as="geometry" />
        </mxCell>
        <mxCell id="n75bXKuZ7EVJmXqUyETZ-91" value="" style="rounded=0;whiteSpace=wrap;html=1;" vertex="1" parent="1">
          <mxGeometry x="190" y="140" width="10" height="30" as="geometry" />
        </mxCell>
        <mxCell id="n75bXKuZ7EVJmXqUyETZ-92" value="" style="rounded=0;whiteSpace=wrap;html=1;" vertex="1" parent="1">
          <mxGeometry x="200" y="140" width="10" height="30" as="geometry" />
        </mxCell>
        <mxCell id="n75bXKuZ7EVJmXqUyETZ-93" value="" style="rounded=0;whiteSpace=wrap;html=1;" vertex="1" parent="1">
          <mxGeometry x="210" y="140" width="10" height="30" as="geometry" />
        </mxCell>
        <mxCell id="n75bXKuZ7EVJmXqUyETZ-94" value="" style="rounded=0;whiteSpace=wrap;html=1;" vertex="1" parent="1">
          <mxGeometry x="220" y="140" width="10" height="30" as="geometry" />
        </mxCell>
        <mxCell id="n75bXKuZ7EVJmXqUyETZ-95" value="" style="rounded=0;whiteSpace=wrap;html=1;" vertex="1" parent="1">
          <mxGeometry x="230" y="140" width="10" height="30" as="geometry" />
        </mxCell>
        <mxCell id="n75bXKuZ7EVJmXqUyETZ-96" value="" style="rounded=0;whiteSpace=wrap;html=1;" vertex="1" parent="1">
          <mxGeometry x="240" y="140" width="10" height="30" as="geometry" />
        </mxCell>
        <mxCell id="n75bXKuZ7EVJmXqUyETZ-97" value="" style="rounded=0;whiteSpace=wrap;html=1;" vertex="1" parent="1">
          <mxGeometry x="250" y="140" width="10" height="30" as="geometry" />
        </mxCell>
        <mxCell id="n75bXKuZ7EVJmXqUyETZ-98" value="" style="rounded=0;whiteSpace=wrap;html=1;" vertex="1" parent="1">
          <mxGeometry x="260" y="140" width="10" height="30" as="geometry" />
        </mxCell>
        <mxCell id="n75bXKuZ7EVJmXqUyETZ-99" value="" style="rounded=0;whiteSpace=wrap;html=1;" vertex="1" parent="1">
          <mxGeometry x="270" y="140" width="10" height="30" as="geometry" />
        </mxCell>
        <mxCell id="n75bXKuZ7EVJmXqUyETZ-100" value="" style="rounded=0;whiteSpace=wrap;html=1;" vertex="1" parent="1">
          <mxGeometry x="280" y="140" width="10" height="30" as="geometry" />
        </mxCell>
        <mxCell id="n75bXKuZ7EVJmXqUyETZ-101" value="" style="rounded=0;whiteSpace=wrap;html=1;" vertex="1" parent="1">
          <mxGeometry x="290" y="140" width="10" height="30" as="geometry" />
        </mxCell>
        <mxCell id="n75bXKuZ7EVJmXqUyETZ-102" value="" style="rounded=0;whiteSpace=wrap;html=1;" vertex="1" parent="1">
          <mxGeometry x="300" y="140" width="10" height="30" as="geometry" />
        </mxCell>
        <mxCell id="n75bXKuZ7EVJmXqUyETZ-103" value="" style="rounded=0;whiteSpace=wrap;html=1;" vertex="1" parent="1">
          <mxGeometry x="310" y="140" width="10" height="30" as="geometry" />
        </mxCell>
        <mxCell id="n75bXKuZ7EVJmXqUyETZ-104" value="" style="rounded=0;whiteSpace=wrap;html=1;" vertex="1" parent="1">
          <mxGeometry x="320" y="140" width="10" height="30" as="geometry" />
        </mxCell>
        <mxCell id="n75bXKuZ7EVJmXqUyETZ-105" value="" style="rounded=0;whiteSpace=wrap;html=1;" vertex="1" parent="1">
          <mxGeometry x="330" y="140" width="10" height="30" as="geometry" />
        </mxCell>
        <mxCell id="n75bXKuZ7EVJmXqUyETZ-106" value="" style="rounded=0;whiteSpace=wrap;html=1;" vertex="1" parent="1">
          <mxGeometry x="340" y="140" width="10" height="30" as="geometry" />
        </mxCell>
        <mxCell id="n75bXKuZ7EVJmXqUyETZ-107" value="" style="rounded=0;whiteSpace=wrap;html=1;" vertex="1" parent="1">
          <mxGeometry x="350" y="140" width="10" height="30" as="geometry" />
        </mxCell>
        <mxCell id="n75bXKuZ7EVJmXqUyETZ-108" value="" style="rounded=0;whiteSpace=wrap;html=1;" vertex="1" parent="1">
          <mxGeometry x="360" y="140" width="10" height="30" as="geometry" />
        </mxCell>
        <mxCell id="n75bXKuZ7EVJmXqUyETZ-109" value="" style="rounded=0;whiteSpace=wrap;html=1;" vertex="1" parent="1">
          <mxGeometry x="370" y="140" width="10" height="30" as="geometry" />
        </mxCell>
        <mxCell id="n75bXKuZ7EVJmXqUyETZ-110" value="" style="rounded=0;whiteSpace=wrap;html=1;" vertex="1" parent="1">
          <mxGeometry x="380" y="140" width="10" height="30" as="geometry" />
        </mxCell>
        <mxCell id="n75bXKuZ7EVJmXqUyETZ-111" value="" style="rounded=0;whiteSpace=wrap;html=1;" vertex="1" parent="1">
          <mxGeometry x="390" y="140" width="10" height="30" as="geometry" />
        </mxCell>
        <mxCell id="n75bXKuZ7EVJmXqUyETZ-112" value="" style="rounded=0;whiteSpace=wrap;html=1;" vertex="1" parent="1">
          <mxGeometry x="400" y="140" width="10" height="30" as="geometry" />
        </mxCell>
        <mxCell id="n75bXKuZ7EVJmXqUyETZ-113" value="" style="rounded=0;whiteSpace=wrap;html=1;" vertex="1" parent="1">
          <mxGeometry x="410" y="140" width="10" height="30" as="geometry" />
        </mxCell>
        <mxCell id="n75bXKuZ7EVJmXqUyETZ-114" value="" style="rounded=0;whiteSpace=wrap;html=1;" vertex="1" parent="1">
          <mxGeometry x="420" y="140" width="10" height="30" as="geometry" />
        </mxCell>
        <mxCell id="n75bXKuZ7EVJmXqUyETZ-115" value="" style="rounded=0;whiteSpace=wrap;html=1;" vertex="1" parent="1">
          <mxGeometry x="430" y="140" width="10" height="30" as="geometry" />
        </mxCell>
        <mxCell id="n75bXKuZ7EVJmXqUyETZ-116" value="" style="rounded=0;whiteSpace=wrap;html=1;" vertex="1" parent="1">
          <mxGeometry x="440" y="140" width="10" height="30" as="geometry" />
        </mxCell>
        <mxCell id="n75bXKuZ7EVJmXqUyETZ-117" value="" style="rounded=0;whiteSpace=wrap;html=1;" vertex="1" parent="1">
          <mxGeometry x="450" y="140" width="10" height="30" as="geometry" />
        </mxCell>
        <mxCell id="n75bXKuZ7EVJmXqUyETZ-118" value="" style="rounded=0;whiteSpace=wrap;html=1;" vertex="1" parent="1">
          <mxGeometry x="460" y="140" width="10" height="30" as="geometry" />
        </mxCell>
        <mxCell id="n75bXKuZ7EVJmXqUyETZ-119" value="" style="rounded=0;whiteSpace=wrap;html=1;" vertex="1" parent="1">
          <mxGeometry x="470" y="140" width="10" height="30" as="geometry" />
        </mxCell>
        <mxCell id="n75bXKuZ7EVJmXqUyETZ-120" value="" style="rounded=0;whiteSpace=wrap;html=1;" vertex="1" parent="1">
          <mxGeometry x="480" y="140" width="10" height="30" as="geometry" />
        </mxCell>
        <mxCell id="n75bXKuZ7EVJmXqUyETZ-121" value="" style="rounded=0;whiteSpace=wrap;html=1;" vertex="1" parent="1">
          <mxGeometry x="490" y="140" width="10" height="30" as="geometry" />
        </mxCell>
        <mxCell id="n75bXKuZ7EVJmXqUyETZ-122" value="" style="rounded=0;whiteSpace=wrap;html=1;" vertex="1" parent="1">
          <mxGeometry x="500" y="140" width="10" height="30" as="geometry" />
        </mxCell>
        <mxCell id="n75bXKuZ7EVJmXqUyETZ-123" value="" style="rounded=0;whiteSpace=wrap;html=1;" vertex="1" parent="1">
          <mxGeometry x="510" y="140" width="10" height="30" as="geometry" />
        </mxCell>
        <mxCell id="n75bXKuZ7EVJmXqUyETZ-124" value="" style="rounded=0;whiteSpace=wrap;html=1;" vertex="1" parent="1">
          <mxGeometry x="520" y="140" width="10" height="30" as="geometry" />
        </mxCell>
        <mxCell id="n75bXKuZ7EVJmXqUyETZ-125" value="" style="rounded=0;whiteSpace=wrap;html=1;" vertex="1" parent="1">
          <mxGeometry x="530" y="140" width="10" height="30" as="geometry" />
        </mxCell>
        <mxCell id="n75bXKuZ7EVJmXqUyETZ-126" value="" style="rounded=0;whiteSpace=wrap;html=1;" vertex="1" parent="1">
          <mxGeometry x="540" y="140" width="10" height="30" as="geometry" />
        </mxCell>
        <mxCell id="n75bXKuZ7EVJmXqUyETZ-127" value="" style="rounded=0;whiteSpace=wrap;html=1;" vertex="1" parent="1">
          <mxGeometry x="550" y="140" width="10" height="30" as="geometry" />
        </mxCell>
        <mxCell id="n75bXKuZ7EVJmXqUyETZ-128" value="" style="rounded=0;whiteSpace=wrap;html=1;" vertex="1" parent="1">
          <mxGeometry x="560" y="140" width="10" height="30" as="geometry" />
        </mxCell>
        <mxCell id="n75bXKuZ7EVJmXqUyETZ-129" value="" style="rounded=0;whiteSpace=wrap;html=1;" vertex="1" parent="1">
          <mxGeometry x="570" y="140" width="10" height="30" as="geometry" />
        </mxCell>
        <mxCell id="n75bXKuZ7EVJmXqUyETZ-130" value="" style="rounded=0;whiteSpace=wrap;html=1;" vertex="1" parent="1">
          <mxGeometry x="580" y="140" width="10" height="30" as="geometry" />
        </mxCell>
        <mxCell id="n75bXKuZ7EVJmXqUyETZ-131" value="" style="rounded=0;whiteSpace=wrap;html=1;" vertex="1" parent="1">
          <mxGeometry x="590" y="140" width="10" height="30" as="geometry" />
        </mxCell>
        <mxCell id="n75bXKuZ7EVJmXqUyETZ-132" value="" style="rounded=0;whiteSpace=wrap;html=1;" vertex="1" parent="1">
          <mxGeometry x="600" y="140" width="10" height="30" as="geometry" />
        </mxCell>
        <mxCell id="n75bXKuZ7EVJmXqUyETZ-133" value="" style="rounded=0;whiteSpace=wrap;html=1;" vertex="1" parent="1">
          <mxGeometry x="610" y="140" width="10" height="30" as="geometry" />
        </mxCell>
        <mxCell id="n75bXKuZ7EVJmXqUyETZ-134" value="" style="rounded=0;whiteSpace=wrap;html=1;" vertex="1" parent="1">
          <mxGeometry x="620" y="140" width="10" height="30" as="geometry" />
        </mxCell>
        <mxCell id="n75bXKuZ7EVJmXqUyETZ-135" value="" style="rounded=0;whiteSpace=wrap;html=1;" vertex="1" parent="1">
          <mxGeometry x="630" y="140" width="10" height="30" as="geometry" />
        </mxCell>
        <mxCell id="n75bXKuZ7EVJmXqUyETZ-136" value="" style="rounded=0;whiteSpace=wrap;html=1;" vertex="1" parent="1">
          <mxGeometry x="640" y="140" width="10" height="30" as="geometry" />
        </mxCell>
        <mxCell id="n75bXKuZ7EVJmXqUyETZ-137" value="" style="rounded=0;whiteSpace=wrap;html=1;" vertex="1" parent="1">
          <mxGeometry x="650" y="140" width="10" height="30" as="geometry" />
        </mxCell>
        <mxCell id="n75bXKuZ7EVJmXqUyETZ-138" value="" style="rounded=0;whiteSpace=wrap;html=1;" vertex="1" parent="1">
          <mxGeometry x="660" y="140" width="10" height="30" as="geometry" />
        </mxCell>
        <mxCell id="n75bXKuZ7EVJmXqUyETZ-139" value="" style="rounded=0;whiteSpace=wrap;html=1;" vertex="1" parent="1">
          <mxGeometry x="670" y="140" width="10" height="30" as="geometry" />
        </mxCell>
        <mxCell id="n75bXKuZ7EVJmXqUyETZ-140" value="" style="rounded=0;whiteSpace=wrap;html=1;" vertex="1" parent="1">
          <mxGeometry x="680" y="140" width="10" height="30" as="geometry" />
        </mxCell>
        <mxCell id="n75bXKuZ7EVJmXqUyETZ-141" value="" style="rounded=0;whiteSpace=wrap;html=1;" vertex="1" parent="1">
          <mxGeometry x="690" y="140" width="10" height="30" as="geometry" />
        </mxCell>
        <mxCell id="n75bXKuZ7EVJmXqUyETZ-142" value="" style="rounded=0;whiteSpace=wrap;html=1;" vertex="1" parent="1">
          <mxGeometry x="700" y="140" width="10" height="30" as="geometry" />
        </mxCell>
        <mxCell id="n75bXKuZ7EVJmXqUyETZ-143" value="" style="rounded=0;whiteSpace=wrap;html=1;" vertex="1" parent="1">
          <mxGeometry x="710" y="140" width="10" height="30" as="geometry" />
        </mxCell>
        <mxCell id="n75bXKuZ7EVJmXqUyETZ-144" value="" style="rounded=0;whiteSpace=wrap;html=1;" vertex="1" parent="1">
          <mxGeometry x="720" y="140" width="10" height="30" as="geometry" />
        </mxCell>
        <mxCell id="n75bXKuZ7EVJmXqUyETZ-145" value="" style="rounded=0;whiteSpace=wrap;html=1;" vertex="1" parent="1">
          <mxGeometry x="730" y="140" width="10" height="30" as="geometry" />
        </mxCell>
        <mxCell id="n75bXKuZ7EVJmXqUyETZ-146" value="" style="rounded=0;whiteSpace=wrap;html=1;" vertex="1" parent="1">
          <mxGeometry x="740" y="140" width="10" height="30" as="geometry" />
        </mxCell>
        <mxCell id="n75bXKuZ7EVJmXqUyETZ-147" value="" style="rounded=0;whiteSpace=wrap;html=1;" vertex="1" parent="1">
          <mxGeometry x="750" y="140" width="10" height="30" as="geometry" />
        </mxCell>
        <mxCell id="n75bXKuZ7EVJmXqUyETZ-148" value="" style="rounded=0;whiteSpace=wrap;html=1;" vertex="1" parent="1">
          <mxGeometry x="760" y="140" width="10" height="30" as="geometry" />
        </mxCell>
        <mxCell id="n75bXKuZ7EVJmXqUyETZ-149" value="" style="rounded=0;whiteSpace=wrap;html=1;" vertex="1" parent="1">
          <mxGeometry x="770" y="140" width="10" height="30" as="geometry" />
        </mxCell>
        <mxCell id="n75bXKuZ7EVJmXqUyETZ-150" value="" style="endArrow=classic;html=1;rounded=0;entryX=0.5;entryY=0;entryDx=0;entryDy=0;" edge="1" parent="1" target="n75bXKuZ7EVJmXqUyETZ-77">
          <mxGeometry width="50" height="50" relative="1" as="geometry">
            <mxPoint x="55" y="120" as="sourcePoint" />
            <mxPoint x="310" y="180" as="targetPoint" />
          </mxGeometry>
        </mxCell>
        <mxCell id="n75bXKuZ7EVJmXqUyETZ-151" value="x0" style="text;html=1;align=center;verticalAlign=middle;resizable=0;points=[];autosize=1;strokeColor=none;fillColor=none;" vertex="1" parent="1">
          <mxGeometry x="35" y="98" width="40" height="30" as="geometry" />
        </mxCell>
        <mxCell id="n75bXKuZ7EVJmXqUyETZ-152" value="" style="endArrow=classic;html=1;rounded=0;entryX=0.5;entryY=0;entryDx=0;entryDy=0;" edge="1" parent="1">
          <mxGeometry width="50" height="50" relative="1" as="geometry">
            <mxPoint x="775" y="120" as="sourcePoint" />
            <mxPoint x="775" y="140" as="targetPoint" />
          </mxGeometry>
        </mxCell>
        <mxCell id="n75bXKuZ7EVJmXqUyETZ-153" value="xn" style="text;html=1;align=center;verticalAlign=middle;resizable=0;points=[];autosize=1;strokeColor=none;fillColor=none;" vertex="1" parent="1">
          <mxGeometry x="755" y="98" width="40" height="30" as="geometry" />
        </mxCell>
      </root>
    </mxGraphModel>
  </diagram>
</mxfile>
